<svg xmlns="http://www.w3.org/2000/svg" viewBox="0 0 1199.91 691.79"><g id="Layer_2" data-name="Layer 2"><g id="Layer_1-2" data-name="Layer 1"><path d="M156.92,1.55c-24.4,6.5-37.6,33.5-27,55,1.6,3.3,3.7,7.1,4.6,8.6l1.8,2.7-7.1,7.4c-13.8,14.5-20.3,29.5-21.1,48.6-.7,16.9,2.2,27.3,11.4,41.3,7.6,11.4,11.9,16.2,19.2,21.2,19.5,13.3,46,13.2,63.7-.2,5.3-4,6.1-5.8,3.4-7.5-1.3-.8-2.8-.3-6.5,2a43.93,43.93,0,0,1-21.9,6.9l-7,.4,6-1.5c7.2-1.9,18.7-7.5,23.5-11.5l3.5-2.9-2.1-2.1-2.1-2.1-4.9,3.4c-7.9,5.3-15.2,7.2-27.4,7.2s-20.1-2.3-29.1-8.5c-11.4-7.8-15.4-16.6-15.3-34.5,0-17.6,4.4-30.3,15.4-43.8,8.5-10.4,8.5-10.5,17.3-5.8,22.9,12.1,50.1,8.1,67.7-9.8a50.88,50.88,0,0,0,10.3-14.4L237,54h6.6c5.5,0,26.2,2.6,27.1,3.5a94.23,94.23,0,0,1-4.2,8.6,111.24,111.24,0,0,0-12.6,52.5c0,24.6,6.7,44.7,21.9,65.7,14.4,20,33.6,32.9,57.8,38.9,12.5,3.1,32.3,3.1,44.6,0,17.2-4.3,30.8-12.2,42.3-24.5A66.64,66.64,0,0,0,437,168c3-11.6,2.3-27-1.5-38.5-4.1-12.2-13.6-27.5-23.1-37.1-13.8-14-27.8-19.8-47-19.8-11.3.1-19,1.6-28.1,5.4l-4.6,2-7.5-7.1A122.77,122.77,0,0,0,310.12,61c-13-8.3-12.3-7.2-6.6-11.3,6.9-5.2,20.4-12,30.7-15.6,15.6-5.5,26.2-7.2,47.7-7.8,30.4-.8,48.9,2.6,70.5,13.1a139.49,139.49,0,0,1,37.7,26.9c10.2,10.1,16.3,19.9,20.3,32.3,2,6.1,3.3,8.4,4.5,8.4s2,1.3,2.6,3.7c1.1,4.3,3.7,6.4,5.6,4.5,3.1-3.1-6.3-26-18.1-43.8-21.6-32.7-53.5-55.2-89.3-63.1-6.7-1.4-12.7-1.8-31.3-1.8-20.1.1-24.3.3-33.5,2.3-27,5.9-48.3,16.2-64.2,31l-6.5,6.2-9.5-2.4a162.07,162.07,0,0,0-17.9-3.6c-4.6-.6-9.8-1.3-11.5-1.6-2.8-.4-3.2-.8-3.7-4.8-.9-6-3.6-13.7-5.7-16.1a34,34,0,0,1-4-6.5c-2.9-5.8-2.5-5.5-5.4-3.7l-2.4,1.6,2.5,6.3a46.35,46.35,0,0,1,3.1,14.4l.5,8.1-9.4.7a172.93,172.93,0,0,0-40.1,8.2c-9.9,3.5-24.4,10.3-30.3,14.3a11,11,0,0,1-4.1,2.1c-2.1,0-3.8-6.3-3.8-13.6A33.36,33.36,0,0,1,150,24.55c4.8-4.3,13.8-8.6,18-8.6,3.1,0,5.9-1.9,5.9-4,0-2.8-3.3-3.3-10.2-1.5a41.52,41.52,0,0,0-29.4,26.3l-1.3,3.7-.1-3.2c0-4.8,3.5-13.4,7.5-18,5.8-6.8,13.8-11.1,23.8-12.8,3.3-.5,3.7-.9,3.7-3.5s-.4-3-2.7-2.9A43.35,43.35,0,0,0,156.92,1.55Zm174.5,23.8a112.37,112.37,0,0,0-35.2,20.2c-5.2,4.5-6.7,5.1-7.7,3.5-.9-1.4,13.7-12,23.1-16.9,7.7-4,24.1-10.1,27.3-10.1C339.72,22.05,336.42,23.55,331.42,25.35Zm-107.5,19.4c0,1.7-2.5,3.2-5.5,3.2-12.9,0-39.8,7.9-56.4,16.5-10.8,5.7-12.5,6.2-13.6,4.4-.9-1.4,1.3-3,12.7-8.9,15.1-7.9,32.6-12.9,51.4-14.9C223.72,43.85,223.92,43.85,223.92,44.75Zm40.3,3.8c6,1.5,10.7,2.8,10.4,3s-4.8-.5-10.3-1.5-13.4-2.2-17.6-2.6-8.1-1.1-8.4-1.7C237.22,44.05,251.82,45.65,264.22,48.55ZM218.92,55c0,1.9-9.4,11.2-14.6,14.6-8.2,5.3-16.5,7.6-26.9,7.7-9,0-16.9-1.5-18-3.4-.9-1.4,20.6-11.4,31-14.3,8.3-2.4,22.6-5.3,26.8-5.5C218.12,54,218.92,54.45,218.92,55Zm7,6.9c-9.1,17.1-30.4,27.1-50.9,24-11.4-1.7-12.6-2.7-2.6-2.2,21.2,1.1,41-8.4,51.6-24.8C228.62,51.65,230.12,54,225.92,61.85Zm51.8,3.9a114.91,114.91,0,0,0-15.3,36.2l-1.4,6.5.5-5.5c1.2-12,6.5-27.6,12.8-37.5,2.7-4.1,4-5.5,4.8-4.7S279.52,63,277.72,65.75Zm24,3.2c9.2,4.9,22.2,13.7,22.2,15.1,0,.4-2.9,3.6-6.5,7-12.2,11.7-16.6,25.5-12.1,38.4,2.3,6.5,10.1,18,14.9,21.9,3.5,2.8,4.6,3.1,10.7,3.1s7.3-.4,11.2-3.1a26.64,26.64,0,0,0,7.7-9.8c3-5.7,3.4-7.5,3.4-13.8a57.33,57.33,0,0,0-6-24.6c-1.4-2.9-2.3-5.9-2-6.6,1-2.4,14.4-5,25.7-5,17.8,0,32.3,5.8,44.1,17.4,4.9,4.9,7.1,8,8.7,12.3,10.2,27.2-.1,57.7-25.2,74.5-16.1,10.7-31.1,14.7-52.5,13.9-14.5-.5-20.6-1.9-33.8-7.4-16.3-6.9-31.3-20.2-37.6-33.5-6.2-12.9-8.1-23-8.1-41.3.1-17.2,1.2-24.7,5.9-37.1,5.1-13.6,13.8-26.4,17.8-26.4C291.42,64,296.62,66.25,301.72,69Zm-159.8,7.3c0,.7-2.3,3.5-5.1,6.2-5.8,5.7-13.2,15.6-15.4,20.6-.8,1.9-1.4,2.7-1.5,1.8,0-3.7,8.4-18.2,14.2-24.5C139.72,74.45,141.92,73.25,141.92,76.25Zm204,9.8c-3,1.1-6.2,1.8-7,1.6-1.8-.4,7.5-3.6,10.5-3.6C350.52,84.05,348.92,85,345.92,86.05Zm-15,6c0,.5-2.7,3.5-6.1,6.6-6.7,6.2-11.2,12.3-13.5,18.1l-1.4,3.7.4-4.1c.7-7.6,6.6-16.5,14.9-22.5C329.52,90.75,330.92,90.35,330.92,92.05Zm8.3,14c5.2,15.1-.6,31.4-11.8,33.5-4.1.7-9.1-1-10.5-3.7-1.7-3-1.1-13.1.9-17.5,3.2-7,15.5-19.1,18.5-18.1C336.92,100.45,338.22,103.05,339.22,106.05Zm5.2,32.5c-3.8,7.8-9.4,11.2-16.1,9.9-4.5-.8-4.3-2.1.4-2.9,5.4-.8,11.7-5.7,15-11.6C347.42,127.15,348.12,131.05,344.42,138.55Zm88.6,20.6c-3.7,24.2-17.3,41.7-40.3,52.2-18.2,8.3-36.9,10-58.6,5.5-8.1-1.7-5.5-2.2,4.4-.8,29.2,3.9,60.6-7.6,78.7-28.9,6-7.1,12.2-19.4,14.5-28.9.9-3.9,1.9-7,2-6.8S433.62,155.05,433,159.15Z"/><path d="M980.92,2.85c0,2.9,1.7,4,6.5,4.1a17.18,17.18,0,0,1,5,1.5l3,1.5-3-.5a7.09,7.09,0,0,0-4.3.4c-2.1,1.3-1,4.5,1.8,5.2,11.3,3.2,14.1,4.3,18.5,7.7,7.8,5.8,10.3,15.7,7,26.9-1.6,5.3-5,11-7.5,12.5-1.1.7-3.9-.5-10-4.1-9.8-5.9-24.8-12-37-15.1-7.1-1.8-26.3-4.9-30.8-5-1.6,0-.9-4.8,2-13.3,2.2-6.4,1.9-8.7-1.1-8.7-2.2,0-3.8,2.3-5.7,8.5-1.2,3.8-1.3,3.8-1.3,1a32.47,32.47,0,0,1,2-8.5c1.1-3,2.2-6.2,2.5-7.1.7-2-4-4.3-5.4-2.6-2.6,3.3-5.5,13.9-5.9,21.8l-.6,8.6-12,1.3a192.46,192.46,0,0,0-23.9,4.1l-11.8,3-4.2-4.2c-16.5-16.1-41.8-28.5-68.3-33.4-12-2.3-40.8-3.1-53-1.6-44.3,5.6-87.3,37-106,77.4-3.6,7.9-7.7,21.2-6.7,22.1a6.32,6.32,0,0,0,3.1.6c2.4,0,2.8-.6,4.4-6.9,5.3-20.3,23.6-43.8,46.2-59.1,6.8-4.6,17.5-10.5,17.5-9.6a26.09,26.09,0,0,1-4.7,3.1c-13.7,7.9-30.7,23.3-41.1,37.3a129.4,129.4,0,0,0-16.8,31.4c-2.8,8.2-3,11.6-.9,12.4,2.3.9,4.2-1.2,5.5-6.3,3.3-13.3,13.8-30,27.1-43.3,19-19,41.4-31.2,67.9-37.2,9.5-2.1,12.9-2.3,34.5-2.3,26.6.1,35.3,1.3,53.2,7.6,13.2,4.7,30.3,13.7,30.3,16,0,.5-2.8,2.3-6.2,4a126.74,126.74,0,0,0-27.5,19.3c-7.2,6.7-7.2,6.7-10.1,5.2-4.9-2.5-16.7-5.4-24.9-6.1-22.9-1.9-46.8,10-59.8,29.5-16.5,24.8-16.6,54.6-.4,80.6,13.5,21.5,31.2,34.8,54.6,40.6,12.3,3.1,32.1,3.1,44.6,0,29.7-7.4,52.5-25.5,64.7-51.5,6.8-14.4,8.5-23.3,8.5-44.2,0-24.7-2.8-35.8-14-56a109.68,109.68,0,0,1-5.5-10.7c0-1.8,22.8-6.4,35-7l5.5-.2,6.6,10c7.7,11.6,14.7,18.2,24.2,23.1a58.49,58.49,0,0,0,54.4-1.2l6.3-3.6,3.5,2.6c8.7,6.7,15.4,22.6,16.2,38.5.9,17.2-3.7,30-14.9,41.3q-15.9,16.2-39.6,14.4c-9.2-.7-15.8-2.8-23.1-7.4-5-3.2-5.4-3.3-6.7-1.6-1.9,2.5-1.8,2.8,1.9,5.9,1.7,1.5,3.2,3.6,3.2,4.8,0,2.7,8.3,8.9,16.1,12,29.8,12,63.8-4.1,74.6-35.2,2-5.8,2.3-8.6,2.3-21.2-.1-12.9-.4-15.4-2.7-22.3-3-8.9-11.4-23.6-18.8-32.8-4.8-5.9-4.9-6.4-3.5-8.6.8-1.3,2.1-3.3,2.9-4.6,5-7.8,5.8-23,1.7-32.3-8.4-19-21.2-31.2-35.9-34.3C981.92-.65,980.92-.45,980.92,2.85Zm-62.3,42.8c.3.7-1.3,1.4-4.4,1.8-14.5,1.8-21.6,3-29.3,5.1-8.1,2.1-11,2-11-.6,0-1.6,18.3-5.7,31.2-6.9C915.42,44,918.12,44.15,918.62,45.65Zm27.9.8c9.1,1.6,20.7,4.5,20.1,5.1-.1.2-4.5-.5-9.7-1.6s-13.2-2.1-17.8-2.5-8.5-1.1-8.8-1.6C929.52,44.45,936.62,44.75,946.52,46.45Zm75,10.6c-1.6,6-5,12.9-6.5,12.9a3.61,3.61,0,0,1-1.8-1.1c-.8-.8-.2-2.3,2.1-5.4a44.19,44.19,0,0,0,5.2-8.8c1-2.5,2-4.4,2.2-4.2S1022.32,53.55,1021.52,57.05Zm-69-1.6a151,151,0,0,1,35.7,10.7c10.2,4.8,10.2,5.6-.2,8.9a53,53,0,0,1-44.3-6.4c-6.4-4.3-12.6-11.7-11.4-13.6C933.32,53.45,942.12,53.65,952.52,55.45Zm-87.3.9c.7,1.8,0,2.4-10.3,7.7-8.6,4.4-21.5,13.5-25.9,18.3-2.6,2.8-4.6,3.3-5.7,1.5-1.6-2.7,16.8-17.4,30.7-24.3C864.12,54.45,864.52,54.35,865.22,56.35Zm10.1,10.9c3.8,5,8.4,15.7,10.9,25.5,1.8,7.3,2.2,11.5,2.1,25.7,0,15.3-.2,18-2.6,26.7-9.1,32.9-32.2,54.7-66.5,62.9-7.5,1.8-11,2-23.3,1.7-13-.4-15.5-.8-24-3.7-12.5-4.2-22.8-10.2-30.4-17.6-9.6-9.4-13.8-20.5-13.9-36.5-.1-17.1,5.2-30.1,17.3-42.1,12.3-12.4,26.9-18.3,44.5-18.3a118.25,118.25,0,0,1,13.7.7l4.7.8-2,5.2c-5,12.5-5.4,26-1,34.4,8,15.1,15.9,22.3,24.8,22.3,16.4,0,27-21.9,19.1-39.2a112.39,112.39,0,0,0-13.9-21.9l-3.9-4.7,5.2-4.7c2.9-2.6,7.3-6.1,9.8-7.9,6.7-4.6,22.2-12.5,24.7-12.6C871.92,64,873.82,65.25,875.32,67.25Zm130.1,8.8c1.9,3-8.5,8.1-20.2,9.9a41.68,41.68,0,0,1-14.1,0c-11.3-1.8-12.8-2.8-3.1-2.3a58.67,58.67,0,0,0,29.4-5.6C1004.32,74.65,1004.62,74.55,1005.42,76.05Zm-246.6,13.1c-17.9,8.9-32.4,28.9-35.8,49.2l-.9,5.1L722,139c-.2-11.2,6.2-26.8,15.1-36.6a64.93,64.93,0,0,1,21.6-15C767.82,83.65,767.92,84.55,758.82,89.15Zm57.1,8.6a4.69,4.69,0,0,1-1.1,2.9c-.6.6-2.4,4.8-4,9.4-3,8.9-3.9,7.3-1.4-2.4,1.7-6.7,4.1-11.7,5.5-11.7C815.52,96,815.92,96.75,815.92,97.75Zm12,3.9c4.3,2.8,8.1,6.7,9.7,9.8,3.6,6.8.9,18.9-5.6,25-2.7,2.5-4.1,3-8.3,3s-5.3-.4-7.5-2.9c-2.4-2.8-2.5-3.5-2.1-11.5.6-11.5,6.2-25.1,10.2-25.1A8.5,8.5,0,0,1,827.92,101.65Zm16.9,30.8c-2.2,11.6-11.1,18.7-19.4,15.4-3.2-1.2-3-1.4,2.8-2.4,4.9-.8,11.1-6.3,14.3-12.7a24.61,24.61,0,0,1,2.8-4.8C845.52,128,845.32,130,844.82,132.45Zm47.2,19.4c-4.2,17-10,27.7-21,39.3-12.2,12.9-25.9,20.8-44.1,25.5-11.5,2.9-28.1,3.3-40.4.9-9.2-1.8-11.6-3.1-3.6-1.9a167.35,167.35,0,0,0,18,.6c26.9-.3,50.3-10.4,68.6-29.5a88.6,88.6,0,0,0,22.5-39.7c.7-2.9,1.5-4.8,1.7-4.2S893.12,147.45,892,151.85Zm140.2,11.2c-3.1,5.3-11,13.5-16.3,16.9-5.5,3.5-18.4,8-22.8,7.9-1.5,0,.4-.8,4.4-1.9,13-3.4,23.9-10.4,31.7-20.6C1034,159.25,1034.82,158.55,1032.22,163.05Z"/><path d="M357.42,521.65c-13.3,1.1-31.8,3.7-45,6.3-25.9,5.1-42.3,10.2-98.5,30.8-56.9,20.8-82.4,26.9-117.1,27.9-30.5.9-49.5-2-65.9-10-7.1-3.4-10.2-5.8-18.9-14.4-12.7-12.6-15.4-13-7.8-1.1,13.7,21.6,30.7,33.4,56.2,38.8,13,2.7,43.7,3.8,62.1,2.1,30.3-2.8,50.3-7.6,92.4-22.1,79.6-27.5,102.7-33.9,140.5-38.6,17.2-2.2,53.6-2.5,67.5-.5,38,5.2,65.8,17.4,87.7,38.4a101.4,101.4,0,0,1,25.9,41.9c1.2,4,2.3,5.8,3.4,5.8s2.1,1.4,2.9,4c1.3,4.5,4.1,5.5,4.1,1.5,0-3.7-5.3-17.5-10.5-27.3-25.3-47.6-64.7-74.3-121.6-82.6C405,521.05,370,520.55,357.42,521.65Zm-168,57.3a31.49,31.49,0,0,1-6.5,1.8c-.8,0,.8-.8,3.5-1.8a33.26,33.26,0,0,1,6.5-1.8C193.72,577.15,192.22,578,189.42,579Zm-13.5,4.1c-4.3,1.8-30,7.8-42.5,10-15,2.6-46.4,3.7-61.5,2-9.9-1.1-28.5-4.9-27.8-5.7.2-.2,4.6.6,9.8,1.7,12.5,2.6,44.1,3.6,62.9,2a309.78,309.78,0,0,0,48-8C175.92,582.15,180.22,581.35,175.92,583.05Z"/><path d="M778.92,522.55c-51.7,8.2-90.9,32.5-112.8,69.9-7.5,12.8-14.5,31.6-12.5,33.6,1.7,1.7,2.9.4,4.8-5.3,2.6-8.1,9.9-23.2,14.9-30.6,20.3-30.5,52.8-50,94.6-56.7,13.1-2.1,15.4-1.8,4.2.6-46.4,9.7-83.6,35.8-102.5,71.7-5.9,11.3-11.4,26.9-9.9,28.4s2.8.3,5.2-6.4c14.9-41.5,47.3-70.1,92.2-81.7,19.5-5,31.8-6.5,56.3-6.5,23.3,0,35.3,1,58.1,4.9,27.4,4.7,45.6,10.2,127.3,37.9,43.2,14.8,66,19.3,101.6,20.3,32.5.9,50.7-1.8,68-10.2a74.82,74.82,0,0,0,26.2-20.5c5.1-6.2,6.6-10,4.1-10-.6,0-4.2,3.4-8,7.4-16.6,18-35.3,25.1-69.3,26.3-9.3.3-22.4.2-29-.3l-12-.9,24.5-.6c19.6-.5,26.6-1.1,35-2.8,23.2-4.9,41.1-16.2,52.9-33.4,2.7-4,3-4.8,1.6-5.3-1.1-.5-4,1.9-9.5,7.8-12.8,13.7-25.2,20.4-45.6,24.5-14,2.8-54.4,2.5-71.9-.5-26-4.5-44.6-10.1-98.5-29.7-55.3-20.1-78.1-26.3-114.2-31.1C837,521.05,791.52,520.55,778.92,522.55Zm299.3,71.1a7.56,7.56,0,0,1-3,0c-1-.3-.4-.5,1.2-.5S1078.82,593.35,1078.22,593.65Z"/><path d="M363.92,570.65c-26.1,1.9-57.5,9.5-109,26.3-85.8,28-100.8,31.5-136.5,31.5-16.8,0-22.7-.4-29.5-1.9-10.1-2.2-23.3-6.7-31.2-10.7-4.9-2.5-5.8-2.6-6.8-1.3-1.6,1.8-2.2,1.3,8,6.7,33.3,17.9,76.4,20.1,128.6,6.7,6.4-1.7,11.9-2.9,12.1-2.7.5.6-17.9,5.4-31.2,8.1-19.2,3.9-31.1,4.9-50,4.3-21.9-.8-33.8-3.4-51.8-11.4-5.4-2.4-8.2-3.2-8.9-2.5-1.6,1.6-.2,3,6.2,6.2,24.4,12.3,52.3,17.5,80.9,15.1,25.5-2.1,46.3-6.8,85.1-19.2,67-21.4,101.9-31.1,129.3-36.1,16.7-3.1,50-3.3,62.2-.4,18.8,4.4,33.4,10.8,44.2,19.6,8.3,6.7,10.7,12.7,10.1,25-.5,10.2-3.5,16.8-10.9,23.4-14.2,12.8-44.8,19.4-76.7,16.8-24.3-2.1-42.3-8.1-56.1-18.9-6.3-5-16.3-16.5-20.4-23.5-2.4-4.1-2.5-4.2-4.7-2.8-1.2.7-1,1.8,1.5,7.2,6.3,13.3,17.5,28.2,26.9,35.5,19,14.8,43.2,21,78.4,20,14.8-.4,19.3-.9,27.7-3.1,20.9-5.5,35.2-15.1,41.6-28.2,4-8.1,5-19.6,2.5-29.4-4.4-17.1-20.3-36.5-37.1-45.1C424.92,573.65,395,568.35,363.92,570.65Zm46.4,8.9c8.7,1.5,25.2,6.2,24.4,6.9-.2.2-3.1-.4-6.3-1.4-15.6-4.9-38.7-6.9-57.9-5.2-14.3,1.3-18.3.8-5.4-.7C378.62,577.65,400.42,577.75,410.32,579.55Zm-55.1,2.1a5.28,5.28,0,0,1-2.5,0c-.7-.3-.2-.5,1.2-.5S355.82,581.35,355.22,581.65Zm-112.3,30.4c-6.3,2.1-11.9,3.9-12.5,3.8-1.4-.1,20.7-7.7,22.5-7.7C253.72,608.15,249.22,609.85,242.92,612.05Zm-22,7c-4.6,1.6-8.9,2.9-9.5,2.8-1.4-.1,14.7-5.7,16.5-5.7C228.72,616.15,225.62,617.45,220.92,619.05Zm-14,4.4a21.56,21.56,0,0,1-5,1.3c-.8,0,.1-.6,2-1.3a21.56,21.56,0,0,1,5-1.3C209.72,622.15,208.82,622.75,206.92,623.45Zm273.6,27.9a36.23,36.23,0,0,1-12,16.9c-9.6,7.3-29.9,13.8-47.3,15.1l-7.8.5,9-1.4c32.9-5.3,54.6-20.4,58.2-40.6l.8-4.4.3,4.3A34.06,34.06,0,0,1,480.52,651.35Z"/><path d="M796.92,571c-43.2,5.4-73.4,23.3-81.1,48.1-2.5,8.1-2.6,21.1,0,28.3,2.7,7.7,13.3,22.9,19.2,27.6,9.9,7.8,25.2,13.6,42.7,16.1,11,1.5,43.1.6,52.7-1.6,30-6.7,49.3-20.2,60.5-42.3,3-5.9,3.4-9.2,1.1-9.2-.6,0-3.2,3.3-5.9,7.2-6.2,9.2-18.1,20.5-26.4,25.1-12.9,7.3-30.2,12-47.8,13.1l-8.5.5,9.5-1.3c15.3-2.3,25.8-5.3,37.5-11.1,16.7-8.1,29-20.3,36.2-36.2,2.1-4.5,2.3-5.7,1.2-6.4-2.1-1.3-2.3-1.2-4.3,2.3-1,1.8-4.3,6.5-7.3,10.5-14.4,19-36.3,29.5-68,32.4-28.7,2.6-57.5-2.3-72.5-12.4-7.6-5.1-10.5-9.1-11.3-16-3-24,17.9-45.2,53.7-54.6,13.5-3.5,22.9-4.4,40.6-3.8,32.1,1,59.4,7.5,144.2,34.4,51.4,16.3,71.1,21,97.5,23.4,28.2,2.5,56.4-2.5,79.8-14.2,7.2-3.7,9.9-6.1,8.3-7.6-.3-.3-4.1,1-8.3,2.9-18.8,8.6-30.1,10.9-56.3,11.3-19.5.3-20.4.3-9-.6,23.4-1.6,42-6.4,59.5-15.1,10-5,10.8-5.7,9.5-7.3-.9-1.1-2.8-.5-9.3,2.5-17.5,8.2-36,12-57.9,12-31.4,0-54.5-5.2-122.8-27.5-57.7-18.8-81.7-25.3-107.5-29.1C833.72,570.55,806.62,569.75,796.92,571Zm12.5,8.5c-24.3,2.5-40.8,6.9-56.3,15-18.8,9.7-31,24.4-32.9,39.6-.7,5.4-.7,5.4-1.3,1.7-1-5.6.7-15.2,3.6-21,6.6-13,22.4-24.3,43.3-30.9,13.7-4.3,23.9-5.7,40.1-5.7h15.5Z"/></g></g></svg>