<svg xmlns="http://www.w3.org/2000/svg" viewBox="0 0 468.27 178.53"><g id="Layer_2" data-name="Layer 2"><g id="Layer_1-2" data-name="Layer 1"><path d="M231.37.76c-7.5,2.19-13.6,11.14-13.6,20.09,0,3.54,3.4,11,8.5,18.94l3.5,5.52-6.7,5.2c-12.4,9.47-11.3,9.26-23.9,4.37-33.7-12.8-69.3-21-100-23.1-26.9-1.77-46,1.77-66,12C9.77,55.82-1.53,73,.17,93.91,1,103.7,3.77,111.5,11,123.06c9.8,15.82,21.7,25.29,39.3,31.43,11.8,4.06,19.5,5.31,33.5,5.31,32.2,0,66.3-9.37,107.3-29.56l11.8-5.83,11,4.89c6,2.71,10.9,5.31,10.9,5.73,0,1.24-17.7,14.77-24.3,18.52-5.7,3.33-5.8,3.33-7.9,1.46a23.59,23.59,0,0,1-3.4-5.1c-3.6-9.06-12.2-11-18.1-4.27-4.3,4.79-4.6,11-.8,16.34a47.88,47.88,0,0,1,3.5,6.14A17.18,17.18,0,0,0,190,178.53c9.9-.1,22.5-6.76,44.5-23.83,6.7-5.21,13-9.47,14-9.47s8,2.39,15.7,5.3c31.4,11.87,52,16.14,74.6,15.2,19.7-.83,30.7-4.27,45.7-14.36l6.2-4.27,8.8,2.08c16.3,4,23.7,4.79,39.3,4.89,14.6,0,15.8-.1,20.4-2.6,6.6-3.43,9.1-7.18,9.1-13.43,0-3.74-.6-5.83-2.6-8.53a60.79,60.79,0,0,1-4.3-7c-2-4-7-7.5-10.6-7.5-4,0-8.7,3.64-10,7.81-1,3.22-.9,4.26.7,7.7l2,4.06-2.9.62c-2.9.63-24.5-.83-30.3-2.08-7-1.35-6.9-1-3.6-7,4.9-9,6.4-16.13,5.9-28.21-.6-12.7-2.2-18-9.5-30-13-21.76-28.2-29.35-58.3-29.35-20.8,0-38.1,3.53-57.7,12.07l-7.3,3.12-6.7-2.39c-3.8-1.25-8.7-3.12-11.1-4.17l-4.3-2,1.9-3.85c5.3-10.72,3.9-17.18-6.9-33.52C248.27,1.49,239.37-1.53,231.37.76Zm5.3,9.47c-.2.21-2.2,1.36-4.4,2.6l-4,2.4,2.8-2.71c1.5-1.46,3.5-2.6,4.4-2.6S236.87,10,236.67,10.23ZM246.77,22c0,3.54-2.5,9-5.4,11.76L239.07,36l-3-2.6c-2.4-2.08-2.9-3.22-2.5-5.83.6-4.26,5.4-8.32,9.8-8.32C246.37,19.29,246.77,19.6,246.77,22ZM60.47,44.89a2,2,0,0,1-1.9.11c-.8-.32-.5-.63.6-.63S60.87,44.58,60.47,44.89Zm-10.8,3.44c-11.8,4.58-21.1,10.09-28.1,16.54-3.6,3.44-5.3,4.58-4,2.81,2.8-3.74,9.1-9.15,15.2-12.8,4.9-3,20.7-9.47,23-9.47C56.57,45.41,53.87,46.76,49.67,48.33Zm283.4.83a5,5,0,0,1-2.5,0c-.7-.31-.2-.52,1.2-.52S333.67,48.85,333.07,49.16Zm-7,1a5,5,0,0,1-2.5,0c-.7-.31-.2-.52,1.2-.52S326.67,49.89,326.07,50.2Zm-212.3,1.35c20.2,2.19,48,8.43,70.9,15.82,7.4,2.4,7.4,2.5,5,4.06-3.1,2.08-18.9,9.47-25.5,12L159,85.27l-7.8-3.74c-18.5-8.75-36.3-12.7-55-12.08-11.5.32-12.4.52-19,4-8.6,4.58-11.4,8.53-11.4,16.13,0,4.06.6,6.25,2.5,8.95,1.3,2,3.3,5.21,4.4,7.18,2.5,4.79,4.6,6.67,10.6,9.58,4.6,2.19,6.4,2.39,20.5,2.29,17,0,25.2-1.46,48.1-8.22l12.4-3.75,7.3,3.54c5.6,2.71,7,3.75,6,4.58-3.4,2.91-29.8,13.63-44.4,18-45.7,13.85-81.1,12-105-5.72-7.4-5.52-10.9-10.72-12.4-18.63-4.3-22,10.5-40.7,40.2-51C71.57,50.82,91.77,49.16,113.77,51.55Zm202.5.63c-3.3.83-9.5,2.7-13.8,4.16s-8.1,2.5-8.4,2.19,3.3-1.77,7.8-3.23c12.2-3.85,15.1-4.58,17.9-4.58C321.17,50.72,319.57,51.34,316.27,52.18Zm-80,1.35c-.9,1.67-12.6,10.51-13.8,10.51-.6,0,2.3-2.6,6.3-5.72C236.17,52.49,237.37,51.76,236.27,53.53Zm134.1,5.83c7.9,2.18,17.2,7,21.1,11a20.55,20.55,0,0,1,4.8,8.54c2.2,7.59,1.9,20.19-.5,26.95-2.1,5.73-11.2,19.36-13.6,20.3s-51-15.2-57.9-19.15c-2-1.25,5.4-3.54,27.4-8.54,7.3-1.66,13.5-3.33,13.8-3.64,1.1-1.14-1.1-2.6-6.8-4.68l-5.4-2.09,2.8-1a16.58,16.58,0,0,1,4.8-1.14c5.1,0-.2-2.5-24.6-11.35-14.6-5.41-26.5-10.09-26.5-10.51,0-.93,17.5-5.1,26.5-6.24C345.47,56.55,362.87,57.38,370.37,59.36Zm-116.2,2.18c3.1,1.46,5.6,2.81,5.6,3a58.92,58.92,0,0,1-7,4.79l-7,4.27-6-2.29a46.68,46.68,0,0,1-6-2.6c0-1,11.8-9.89,13.1-9.89C247.77,58.84,251.07,60.09,254.17,61.54Zm16.6,9.27c0,.73-12,7.8-13.3,7.8-.7,0,1.7-1.87,5.3-4.06C269.07,70.6,270.77,69.77,270.77,70.81Zm32.1,8.84c7.9,2.92,14.4,5.42,14.6,5.62.4.42-22.3,9-23.9,9-.7,0-5.2-1.67-9.8-3.75s-10.1-4.37-12-5.21l-3.5-1.56,8-4.58c4.4-2.49,9-4.68,10.2-4.68S295.07,76.84,302.87,79.65Zm-100.6-2.49c-2.4,1.87-18.6,10.09-25.9,13-8.3,3.43-3.9.52,6.4-4.17,5.2-2.39,12-5.72,15-7.39C204,75.18,205.17,74.76,202.27,77.16ZM86.37,81.32A45.38,45.38,0,0,0,78.87,85l-3.6,2.29L77.37,85c2.1-2.29,8.5-5.2,11.4-5.2C89.57,79.76,88.57,80.49,86.37,81.32ZM225.77,83l3.5,1.46-11,6.77c-6.1,3.74-13.4,8.12-16.3,9.78l-5.2,2.91-6-2.91c-3.3-1.66-6-3.23-5.9-3.54s6.9-4.27,15.2-8.64C216.27,80.38,218.47,79.86,225.77,83Zm-106,6.56c5.2.83,10.8,1.88,12.4,2.4l2.9.83-3.9,1.14a114.76,114.76,0,0,1-34.1,5c-14.8,0-17.4-.94-13.6-4.79C89,88.4,102.17,86.73,119.77,89.54Zm118.9,2c-1.7,1.77-29.4,18.11-29.8,17.59-.4-.31-.1-.73.4-.94s7.3-4.37,15-9.16,14.2-8.53,14.4-8.32A.65.65,0,0,1,238.67,91.52Zm87.8,3.33a1.94,1.94,0,0,1-1.9.1c-.8-.31-.5-.62.6-.62S326.87,94.54,326.47,94.85Zm-62.2,4.79c9.3,4.16,9.6,4.37,7.3,5.72-1.2.73-7.2,4.37-13.3,7.91s-12.4,7.5-14.1,8.54l-3.1,1.87-9.4-3.85c-5.2-2.19-9.8-4.27-10.2-4.79-1.1-1,28.1-19.67,31-19.67C253.67,95.27,259,97.24,264.27,99.64Zm52-1.67c-3.8,1.36-7.4,2.4-8,2.19-1.1-.42,11.1-4.69,13.5-4.69C322.57,95.47,320.17,96.52,316.27,98Zm-169.8,3.12a1.94,1.94,0,0,1-1.9.11c-.8-.31-.5-.63.6-.63S146.87,100.78,146.47,101.09Zm-7,2.09a2,2,0,0,1-1.9.1c-.8-.31-.5-.62.6-.62S139.87,102.86,139.47,103.18Zm-4,1a2,2,0,0,1-1.9.1c-.8-.31-.5-.62.6-.62S135.87,103.9,135.47,104.22Zm148.8,6.45c-1.6,1.46-30.3,17.9-31.2,17.9-1.3-.1,8.5-6.24,20.2-12.59C284.17,109.94,286.07,109,284.27,110.67Zm28.9,9.78c7.2,2.92,21.2,8.23,31.1,11.87s17.8,6.87,17.7,7.28c-1.2,3.13-21.5,7.71-34.1,7.71-14,0-33.5-4-53-10.62l-9.4-3.23,2.4-1.87c3-2.39,29.7-16.55,31.2-16.55C299.67,115,306.07,117.44,313.17,120.45Zm-124-.2c-3,3.12-45.3,20.5-54.4,22.27-1.9.42,2.5-1.46,9.9-4.06s20.2-8,28.5-11.87C188.47,119.41,191,118.37,189.17,120.25Zm206.6,6.66a6.51,6.51,0,0,1-1.7,1.77c-1.6,1.35-1.7,1.25-.4-.42S395.77,126.07,395.77,126.91Zm-161,14.67c0,.83-20.2,16.24-26.2,20-5.4,3.43-12.8,7-12.8,6.14,0-.32,3.5-2.4,7.8-4.79a231.78,231.78,0,0,0,19.3-13C235,140.65,234.77,140.75,234.77,141.58Zm-105.5,2.6a11,11,0,0,1-4,.84c-1.6,0-1.5-.21.5-.84C129.17,143,131.77,143,129.27,144.18Zm-6.8,1.67a1.94,1.94,0,0,1-1.9.1c-.8-.31-.5-.62.6-.62S122.87,145.54,122.47,145.85Zm252.3-.1c0,.72-9,5.3-12,6.14-1.4.41.4-.84,4-2.81C373.57,145.43,374.77,144.91,374.77,145.75Z"/></g></g></svg>